<svg width="240" height="67" viewBox="0 0 240 67" fill="none" xmlns="http://www.w3.org/2000/svg">
<path d="M35.6247 0V12.82L35.3476 13.021L17.4754 26.1585L8.75641 19.7485L35.6247 0Z" fill="#63A3D6"/>
<path d="M35.6247 14.6408V27.2401L27.2851 33.3698L18.711 27.0689L35.6247 14.6408Z" fill="#AAE0F8"/>
<path d="M73.1689 40.8192L64.5997 47.1176L55.9756 40.7795L54.5279 39.7178L63.0971 33.4169L73.1689 40.8192Z" fill="#2276BD"/>
<path d="M64.5997 47.1176L46.6551 60.3097L45.2073 61.3714L37.5617 66.9926V54.3139L38.0285 53.9666L55.9756 40.7795L64.5997 47.1176Z" fill="#63A3D6"/>
<path d="M64.4175 19.7485L55.6985 26.1585L37.8263 13.021L37.5617 12.825V0.00496131L64.4175 19.7485Z" fill="#C8EAFB"/>
<path d="M73.0541 26.0965L63.0971 33.4169L54.5279 39.7178L37.5617 52.193V39.4895L45.8913 33.3648L54.4605 27.0689L55.6985 26.1585L64.4175 19.7485L73.0541 26.0965Z" fill="#AAE0F8"/>
<path d="M54.4605 27.0689L45.8913 33.3648L37.5617 27.245V14.6458L54.4605 27.0689Z" fill="#2276BD"/>
<path d="M18.6436 39.7178L17.2008 40.7795L8.57419 47.1225L0 40.8192L8.62661 34.4836L10.0744 33.4169L18.6436 39.7178Z" fill="#AAE0F8"/>
<path d="M35.6247 54.3239V67L8.57419 47.1225L17.2008 40.7795L35.1405 53.9666L35.6247 54.3239Z" fill="#63A3D6"/>
<path d="M35.6247 39.5019V52.1979L18.6436 39.7178L10.0744 33.4169L0.114822 26.0965L8.75641 19.7485L17.4754 26.1585L18.711 27.0689L27.2851 33.3698L35.6247 39.5019Z" fill="#2276BD"/>
<path d="M81.1241 33.2284L78.3584 29.4702V35.9794H76.651V26.7018H78.1487L81.3687 30.9933L84.6012 26.7018H86.0988V35.9794H84.3915V29.4826L81.5958 33.2284H81.1241Z" fill="#2276BD"/>
<path d="M95.1573 34.2033H90.854L90.1051 35.9695H88.3004L92.1844 26.6869H93.8044L97.7158 35.9794H95.9036L95.1573 34.2033ZM91.458 32.7546H94.5457L93.063 29.175L93.0081 28.9269L92.9532 29.175L91.458 32.7546Z" fill="#2276BD"/>
<path d="M99.0163 31.3183C99.0142 30.8794 99.0755 30.4424 99.1985 30.0209C99.3133 29.6147 99.4812 29.2253 99.6977 28.8624C99.9157 28.5018 100.182 28.1721 100.489 27.8826C101.298 27.1293 102.327 26.6512 103.427 26.5174C104.527 26.3836 105.642 26.6011 106.61 27.1384C106.98 27.3445 107.323 27.5943 107.633 27.8826C108.254 28.4688 108.708 29.2084 108.948 30.0258C109.229 31.0061 109.183 32.0501 108.819 33.0026C108.614 33.5227 108.323 34.0049 107.957 34.429L109.405 35.8678L108.259 37.0188L106.702 35.4634C106.311 35.6924 105.891 35.8684 105.454 35.9869C105.001 36.1082 104.535 36.1691 104.066 36.1679C103.612 36.1696 103.16 36.1121 102.721 35.9968C102.298 35.8852 101.893 35.7184 101.515 35.5007C101.145 35.2912 100.802 35.037 100.494 34.744C100.188 34.4548 99.9215 34.126 99.7027 33.7667C99.4862 33.4029 99.3183 33.0127 99.2035 32.6057C99.0797 32.1876 99.0167 31.7541 99.0163 31.3183ZM100.726 31.3183C100.722 31.7639 100.806 32.206 100.974 32.619C101.143 33.032 101.392 33.4078 101.707 33.7245C102.011 34.028 102.371 34.2698 102.768 34.4365C103.179 34.6113 103.622 34.7 104.068 34.6969C104.519 34.7003 104.965 34.6116 105.379 34.4365C105.776 34.2699 106.138 34.0281 106.442 33.7245C106.748 33.4164 106.99 33.0525 107.156 32.6529C107.502 31.7964 107.502 30.8402 107.156 29.9837C106.994 29.5836 106.753 29.2196 106.448 28.9126C106.143 28.6056 105.779 28.3617 105.379 28.1951C104.964 28.0242 104.518 27.9398 104.068 27.9471C103.622 27.94 103.18 28.0245 102.768 28.1951C102.372 28.3626 102.012 28.6043 101.707 28.9071C101.392 29.2251 101.143 29.6018 100.975 30.0156C100.807 30.4293 100.722 30.872 100.726 31.3183Z" fill="#2276BD"/>
<path d="M117.989 26.6918H119.699V32.3825C119.705 32.9058 119.606 33.4251 119.41 33.9106C119.226 34.3625 118.949 34.7708 118.596 35.1087C118.238 35.4524 117.813 35.72 117.348 35.8951C116.312 36.2572 115.183 36.2572 114.148 35.8951C113.681 35.732 113.251 35.4791 112.882 35.1509C112.518 34.8179 112.23 34.4109 112.039 33.9577C111.829 33.4591 111.725 32.9228 111.734 32.3825V26.6918H113.434V32.3825C113.432 32.6932 113.484 33.0019 113.586 33.2953C113.68 33.5704 113.83 33.8236 114.025 34.0395C114.223 34.2559 114.467 34.4255 114.739 34.5357C115.05 34.6621 115.384 34.7237 115.72 34.7168C116.05 34.7224 116.377 34.6607 116.681 34.5357C116.953 34.4236 117.198 34.2543 117.398 34.0395C117.595 33.8285 117.748 33.5795 117.845 33.3078C117.949 33.0139 118.002 32.7041 117.999 32.3924L117.989 26.6918Z" fill="#2276BD"/>
<path d="M122.715 26.6918H124.424V35.9794H122.717L122.715 26.6918Z" fill="#2276BD"/>
<path d="M128.75 33.1788C128.749 33.3881 128.8 33.5945 128.9 33.7791C129.004 33.9732 129.15 34.1424 129.327 34.2752C129.525 34.4222 129.748 34.5331 129.986 34.6027C130.262 34.685 130.549 34.7252 130.837 34.7217C131.577 34.7217 132.122 34.6043 132.469 34.3695C132.635 34.2631 132.771 34.1157 132.862 33.9418C132.954 33.7679 132.998 33.5733 132.991 33.3772C133.001 33.1487 132.938 32.9229 132.811 32.7322C132.681 32.5546 132.51 32.4108 132.312 32.313C132.065 32.1872 131.803 32.0906 131.533 32.0253C131.231 31.9484 130.899 31.869 130.535 31.7772L129.891 31.6432C129.655 31.5945 129.421 31.5324 129.192 31.4572C128.957 31.3805 128.728 31.286 128.508 31.1744C128.295 31.066 128.099 30.9254 127.929 30.7576C127.759 30.5878 127.622 30.3886 127.525 30.1697C127.416 29.9167 127.363 29.6435 127.37 29.3685C127.366 28.9705 127.436 28.5752 127.577 28.2026C127.713 27.8486 127.937 27.5347 128.228 27.2897C128.565 27.0138 128.955 26.8102 129.374 26.6918C129.923 26.5379 130.492 26.466 131.062 26.4785C131.538 26.471 132.012 26.5389 132.467 26.6794C132.848 26.7972 133.201 26.9905 133.505 27.2475C133.786 27.4894 134.008 27.7913 134.154 28.1306C134.307 28.4926 134.382 28.8819 134.376 29.2742H132.662C132.663 29.0955 132.625 28.9187 132.552 28.7558C132.476 28.5937 132.364 28.4512 132.225 28.339C132.064 28.2111 131.879 28.1159 131.681 28.0587C131.431 27.9872 131.172 27.953 130.912 27.957C130.609 27.9497 130.307 27.9864 130.016 28.0661C129.811 28.1219 129.62 28.2181 129.454 28.3489C129.323 28.4541 129.222 28.5919 129.162 28.7483C129.108 28.8945 129.08 29.049 129.08 29.2047C129.075 29.3933 129.134 29.578 129.249 29.7282C129.379 29.8812 129.541 30.004 129.724 30.0879C129.952 30.197 130.193 30.2802 130.44 30.3359C130.717 30.4004 131.022 30.455 131.351 30.4996C131.795 30.5956 132.221 30.7055 132.627 30.8296C133.008 30.941 133.371 31.1082 133.702 31.3257C134.01 31.5336 134.266 31.8085 134.451 32.1294C134.636 32.5087 134.732 32.9247 134.732 33.3462C134.732 33.7677 134.636 34.1837 134.451 34.563C134.258 34.916 133.983 35.2186 133.65 35.4461C133.275 35.6988 132.857 35.8828 132.417 35.9893C131.894 36.1204 131.356 36.1837 130.817 36.1779C130.246 36.1899 129.678 36.1 129.14 35.9124C128.707 35.7585 128.308 35.5236 127.964 35.2203C127.668 34.9521 127.434 34.6239 127.277 34.2578C127.133 33.9153 127.057 33.5478 127.055 33.1763L128.75 33.1788Z" fill="#8F9092"/>
<path d="M137.427 26.6918H143.824V28.1654H139.137V30.646H143.185V32.1071H139.137V34.5009H143.879V35.9794H137.427V26.6918Z" fill="#8F9092"/>
<path d="M150.202 32.7546H148.227V35.9794H146.518V26.7018H150.546C150.989 26.6979 151.43 26.7718 151.847 26.9201C152.226 27.0567 152.575 27.2667 152.873 27.5377C153.163 27.8067 153.392 28.134 153.544 28.4978C153.713 28.8895 153.798 29.3119 153.794 29.7381C153.796 30.0578 153.751 30.3762 153.661 30.6832C153.503 31.2464 153.165 31.7433 152.698 32.0997C152.463 32.2786 152.203 32.4231 151.927 32.5288L153.998 35.9794H152.036L150.202 32.7546ZM150.491 31.2885C150.705 31.2905 150.916 31.2526 151.115 31.1769C151.301 31.1051 151.47 30.998 151.615 30.8618C151.761 30.7217 151.875 30.5527 151.952 30.3657C152.115 29.9578 152.115 29.5034 151.952 29.0956C151.874 28.9093 151.759 28.7406 151.613 28.5999C151.468 28.4592 151.295 28.3493 151.105 28.277C150.904 28.1994 150.69 28.1607 150.474 28.1629H148.227V31.2662L150.491 31.2885Z" fill="#8F9092"/>
<path d="M163.114 26.6869H164.919L160.988 35.9794H159.438L155.519 26.6968H157.323L160.206 33.7071L163.114 26.6869Z" fill="#8F9092"/>
<path d="M167.203 26.6918H168.91V35.9794H167.203V26.6918Z" fill="#8F9092"/>
<path d="M179.716 29.872C179.597 29.574 179.428 29.2981 179.217 29.0559C179.014 28.8192 178.777 28.6143 178.513 28.4482C178.248 28.2827 177.96 28.1558 177.659 28.0711C177.353 27.9847 177.036 27.9413 176.718 27.9421C176.272 27.9351 175.829 28.0195 175.418 28.1902C175.022 28.3583 174.663 28.6 174.359 28.9021C173.724 29.545 173.368 30.4099 173.368 31.3108C173.368 32.2117 173.724 33.0767 174.359 33.7195C174.663 34.0225 175.022 34.2643 175.418 34.4315C175.829 34.6064 176.271 34.6951 176.718 34.692C177.035 34.6926 177.351 34.65 177.657 34.5654C177.957 34.4827 178.244 34.3573 178.508 34.1933C178.772 34.0282 179.009 33.8241 179.212 33.5881C179.422 33.3462 179.591 33.0712 179.711 32.7744H181.458C181.318 33.2997 181.075 33.7922 180.742 34.2231C180.423 34.6363 180.039 34.9949 179.604 35.2848C178.987 35.6935 178.289 35.9674 177.558 36.0884C176.826 36.2094 176.077 36.1748 175.36 35.9869C174.939 35.8748 174.534 35.708 174.157 35.4907C173.786 35.2813 173.442 35.0272 173.134 34.7341C172.828 34.4448 172.563 34.1161 172.345 33.7568C172.128 33.393 171.961 33.0027 171.846 32.5958C171.609 31.7551 171.61 30.8656 171.851 30.0258C171.966 29.6197 172.133 29.2302 172.35 28.8674C172.567 28.5068 172.832 28.1772 173.139 27.8875C174.101 26.9758 175.381 26.4715 176.711 26.481C177.218 26.4809 177.722 26.5527 178.208 26.6943C178.704 26.8367 179.176 27.0534 179.606 27.3368C180.043 27.6246 180.428 27.9835 180.744 28.3985C181.08 28.8424 181.324 29.3484 181.461 29.8869L179.716 29.872Z" fill="#8F9092"/>
<path d="M184.331 26.6918H186.041V35.9794H184.331V26.6918Z" fill="#8F9092"/>
<path d="M188.794 31.3183C188.794 30.8794 188.855 30.4427 188.977 30.0209C189.093 29.6151 189.26 29.2258 189.476 28.8624C189.693 28.5019 189.958 28.1722 190.265 27.8826C191.227 26.9694 192.506 26.4598 193.837 26.4598C195.167 26.4598 196.446 26.9694 197.409 27.8826C197.716 28.1727 197.983 28.5023 198.202 28.8624C198.419 29.2253 198.587 29.6148 198.702 30.0209C198.945 30.8681 198.945 31.7659 198.702 32.6132C198.587 33.0201 198.419 33.4103 198.202 33.7741C197.982 34.133 197.715 34.4617 197.409 34.7515C197.101 35.0445 196.758 35.2986 196.388 35.5081C196.009 35.7254 195.602 35.8922 195.18 36.0042C194.298 36.2324 193.373 36.2324 192.491 36.0042C192.07 35.8922 191.665 35.7254 191.288 35.5081C190.917 35.2987 190.573 35.0445 190.265 34.7515C189.959 34.4622 189.694 34.1335 189.476 33.7741C189.26 33.4098 189.093 33.0197 188.977 32.6132C188.855 32.1922 188.794 31.7563 188.794 31.3183ZM190.504 31.3183C190.494 31.9808 190.683 32.6313 191.047 33.1867C191.411 33.7421 191.932 34.1772 192.546 34.4364C192.957 34.6113 193.4 34.7 193.847 34.6969C194.297 34.7002 194.743 34.6116 195.157 34.4364C195.557 34.2698 195.919 34.0265 196.224 33.7205C196.529 33.4144 196.771 33.0516 196.934 32.6529C197.284 31.797 197.284 30.8395 196.934 29.9837C196.77 29.5817 196.527 29.2159 196.22 28.9071C195.915 28.6043 195.554 28.3626 195.157 28.1951C194.742 28.0242 194.296 27.9398 193.847 27.9471C193.401 27.94 192.958 28.0245 192.546 28.1951C191.935 28.459 191.415 28.8959 191.052 29.4513C190.689 30.0067 190.499 30.656 190.504 31.3183Z" fill="#8F9092"/>
<path d="M202.655 33.1788C202.654 33.3881 202.706 33.5945 202.805 33.7791C202.91 33.9726 203.056 34.1417 203.232 34.2752C203.43 34.4222 203.654 34.5331 203.891 34.6027C204.167 34.6849 204.454 34.725 204.742 34.7217C205.484 34.7217 206.029 34.6043 206.375 34.3695C206.541 34.2635 206.676 34.1162 206.768 33.9421C206.859 33.7681 206.904 33.5734 206.896 33.3772C206.906 33.1491 206.844 32.9236 206.719 32.7322C206.588 32.5552 206.417 32.4115 206.22 32.313C205.972 32.188 205.711 32.0915 205.441 32.0252C205.14 31.9475 204.807 31.8648 204.443 31.7772L203.801 31.6432C203.564 31.5945 203.33 31.5324 203.1 31.4572C202.866 31.3805 202.638 31.2859 202.418 31.1744C202.204 31.0667 202.007 30.926 201.837 30.7576C201.667 30.5878 201.53 30.3886 201.432 30.1697C201.324 29.9167 201.271 29.6435 201.278 29.3685C201.274 28.9705 201.344 28.5752 201.485 28.2026C201.621 27.8486 201.845 27.5347 202.136 27.2897C202.472 27.0138 202.863 26.8102 203.282 26.6918C203.831 26.5379 204.401 26.466 204.972 26.4785C205.447 26.4713 205.921 26.5391 206.375 26.6794C206.756 26.7972 207.109 26.9905 207.413 27.2475C207.694 27.4887 207.917 27.7908 208.062 28.1306C208.219 28.4941 208.298 28.8861 208.294 29.2816H206.577C206.579 29.1029 206.542 28.9258 206.467 28.7632C206.392 28.6018 206.281 28.4594 206.143 28.3464C205.98 28.219 205.794 28.1238 205.596 28.0661C205.346 27.9947 205.087 27.9604 204.827 27.9644C204.525 27.9573 204.223 27.9941 203.931 28.0736C203.727 28.1299 203.536 28.2261 203.369 28.3564C203.238 28.4615 203.137 28.5993 203.077 28.7557C203.023 28.902 202.995 29.0564 202.995 29.2122C202.989 29.4013 203.05 29.5863 203.167 29.7356C203.295 29.8891 203.457 30.012 203.639 30.0953C203.868 30.2048 204.109 30.288 204.358 30.3434C204.635 30.4079 204.937 30.4624 205.266 30.5071C205.711 30.603 206.136 30.713 206.542 30.837C206.923 30.9479 207.286 31.1152 207.618 31.3331C207.926 31.541 208.182 31.8159 208.367 32.1369C208.551 32.5162 208.648 32.9322 208.648 33.3536C208.648 33.7751 208.551 34.1911 208.367 34.5704C208.173 34.9228 207.9 35.2252 207.568 35.4535C207.188 35.7072 206.765 35.8911 206.32 35.9968C205.797 36.1281 205.259 36.1914 204.72 36.1853C204.149 36.1969 203.581 36.107 203.042 35.9199C202.61 35.7665 202.212 35.5315 201.869 35.2278C201.572 34.9609 201.338 34.6323 201.183 34.2653C201.036 33.9232 200.96 33.5555 200.958 33.1837L202.655 33.1788Z" fill="#8F9092"/>
<path d="M220.276 29.9117C220.155 29.612 219.987 29.3338 219.776 29.0882C219.572 28.8491 219.332 28.6425 219.065 28.4754C218.797 28.307 218.506 28.1775 218.201 28.0909C217.892 28.0047 217.572 27.9613 217.25 27.9619C216.799 27.9589 216.353 28.0475 215.937 28.2224C215.122 28.5658 214.477 29.2147 214.14 30.0283C213.872 30.6595 213.797 31.3555 213.926 32.0287C214.055 32.7018 214.381 33.3221 214.864 33.8113C215.171 34.1182 215.536 34.3626 215.937 34.5307C216.352 34.7076 216.799 34.7971 217.25 34.7937C217.57 34.7947 217.889 34.7512 218.196 34.6647C218.501 34.5831 218.791 34.4568 219.057 34.2901C219.324 34.1239 219.564 33.9181 219.769 33.6799C219.98 33.4348 220.149 33.1565 220.268 32.8563H222.045C221.903 33.3871 221.656 33.8846 221.319 34.3199C220.997 34.7383 220.609 35.1012 220.168 35.394C219.546 35.8048 218.843 36.0804 218.107 36.2026C217.37 36.3249 216.615 36.2911 215.892 36.1034C215.466 35.9918 215.057 35.825 214.674 35.6073C214.3 35.3954 213.953 35.1388 213.641 34.8433C213.332 34.549 213.063 34.2154 212.842 33.851C212.62 33.4838 212.447 33.0894 212.328 32.6777C212.085 31.8212 212.085 30.9146 212.328 30.0581C212.448 29.6473 212.62 29.2538 212.842 28.8872C213.062 28.5224 213.331 28.1887 213.641 27.895C214.272 27.2986 215.045 26.8717 215.887 26.6546C216.33 26.5373 216.787 26.4789 217.245 26.481C217.752 26.4828 218.257 26.5563 218.743 26.6993C219.245 26.8418 219.721 27.0601 220.156 27.3467C220.597 27.6381 220.986 28.0012 221.306 28.4209C221.647 28.8682 221.894 29.3784 222.033 29.9217L220.276 29.9117Z" fill="#2276BD"/>
<path d="M222.941 35.3171C222.942 35.1931 222.965 35.0702 223.011 34.9549C223.058 34.8428 223.127 34.7408 223.214 34.6547C223.303 34.5664 223.409 34.4965 223.526 34.4488C223.784 34.3464 224.071 34.3464 224.329 34.4488C224.446 34.4965 224.552 34.5664 224.641 34.6547C224.728 34.7402 224.797 34.8423 224.843 34.9549C224.937 35.1875 224.937 35.4467 224.843 35.6793C224.798 35.7907 224.729 35.8913 224.641 35.9745C224.552 36.062 224.446 36.1304 224.329 36.1754C224.201 36.2244 224.065 36.2488 223.927 36.2473C223.796 36.25 223.665 36.2269 223.543 36.1792C223.42 36.1315 223.308 36.0603 223.214 35.9695C223.127 35.8847 223.058 35.7835 223.011 35.6718C222.965 35.5591 222.942 35.4387 222.941 35.3171Z" fill="#2276BD"/>
<path d="M234.858 29.9117C234.738 29.612 234.569 29.3338 234.359 29.0882C234.153 28.8503 233.913 28.6438 233.647 28.4754C233.379 28.307 233.089 28.1775 232.784 28.0909C232.474 28.0047 232.154 27.9613 231.833 27.9619C231.381 27.9588 230.933 28.0475 230.517 28.2224C230.117 28.3924 229.753 28.6375 229.446 28.9443C228.805 29.5937 228.445 30.4676 228.445 31.3778C228.445 32.2881 228.805 33.1619 229.446 33.8113C229.753 34.1181 230.116 34.3625 230.517 34.5307C230.933 34.7076 231.381 34.7971 231.833 34.7937C232.152 34.7947 232.471 34.7512 232.779 34.6647C233.082 34.582 233.373 34.4558 233.64 34.2901C233.906 34.1226 234.146 33.917 234.351 33.6799C234.562 33.4342 234.73 33.156 234.85 32.8563H236.625C236.483 33.3866 236.237 33.8839 235.901 34.3199C235.579 34.7384 235.189 35.1013 234.748 35.394C233.883 35.9637 232.87 36.2698 231.833 36.2746C231.374 36.2763 230.916 36.2187 230.472 36.1035C230.046 35.9913 229.637 35.8246 229.254 35.6073C228.88 35.3954 228.533 35.1388 228.221 34.8433C227.912 34.549 227.645 34.2153 227.424 33.851C227.202 33.4838 227.03 33.0894 226.91 32.6777C226.664 31.8216 226.664 30.9141 226.91 30.0581C227.03 29.6474 227.203 29.2538 227.424 28.8872C227.644 28.5225 227.912 28.1887 228.221 27.895C228.531 27.5987 228.879 27.3428 229.254 27.1334C230.042 26.6964 230.93 26.4683 231.833 26.4711C232.34 26.4729 232.844 26.5463 233.33 26.6894C233.831 26.8319 234.307 27.0502 234.741 27.3368C235.183 27.6282 235.573 27.9913 235.894 28.4109C236.232 28.859 236.478 29.369 236.618 29.9117H234.858Z" fill="#2276BD"/>
<path d="M238.031 35.3171C238.029 35.1929 238.053 35.0698 238.1 34.9549C238.146 34.8418 238.215 34.7395 238.303 34.6547C238.392 34.5659 238.498 34.4958 238.615 34.4488C238.873 34.3464 239.16 34.3464 239.418 34.4488C239.535 34.4965 239.641 34.5664 239.73 34.6547C239.817 34.7408 239.885 34.8428 239.933 34.9549C240.022 35.1881 240.022 35.4461 239.933 35.6793C239.886 35.7902 239.817 35.8906 239.73 35.9745C239.641 36.062 239.535 36.1304 239.418 36.1754C239.29 36.2244 239.154 36.2488 239.016 36.2473C238.879 36.2494 238.742 36.2241 238.615 36.1729C238.499 36.1252 238.393 36.0562 238.303 35.9695C238.214 35.8861 238.145 35.7845 238.1 35.6718C238.053 35.5594 238.03 35.4388 238.031 35.3171Z" fill="#2276BD"/>
</svg>
