<svg width="189" height="100" viewBox="0 0 189 100" fill="none" xmlns="http://www.w3.org/2000/svg">
<path d="M93.2976 0V14.911L73.2883 29.7066L73.0085 29.4988L63.213 22.2511L93.2976 0Z" fill="white"/>
<path d="M93.2976 17.0317V31.683L84.6274 38.0969L84.3417 37.8863L74.7165 30.7683L93.2976 17.0317Z" fill="white"/>
<path d="M136.695 47.4797L127.762 54.0841L127.476 53.8735L117.505 46.5016L117.089 46.1958L125.736 39.7963L126.022 39.5857L136.695 47.4797Z" fill="white"/>
<path d="M126.79 54.8025L106.047 70.1463L104.374 71.3812L95.5336 77.922V63.1726L96.076 62.7687L116.818 47.4307L126.79 54.8025Z" fill="white"/>
<path d="M94.3824 80.1639V80.21L94.4141 80.187L94.3824 80.1639Z" fill="#231F20"/>
<path d="M125.607 22.2511L115.814 29.4988L115.531 29.7066L95.8423 15.1476L95.5336 14.9168V0.00577051L125.607 22.2511Z" fill="white"/>
<path d="M136.562 30.3529L125.05 38.8673L95.5336 60.7057V45.9332L126.579 22.9695L136.562 30.3529Z" fill="white"/>
<path d="M114.1 30.7683L104.478 37.8805L104.192 38.0911L95.5336 31.6887V17.0374L114.1 30.7683Z" fill="white"/>
<path d="M71.7274 46.1987L71.3148 46.5016L61.3434 53.8792L61.0577 54.0898L52.1192 47.4797L62.0907 40.1079L62.7918 39.5857L63.0774 39.7963L71.7274 46.1987Z" fill="white"/>
<path d="M93.2976 63.1842V77.9278L62.0301 54.8083L72.0015 47.4307L92.7378 62.7687L93.2976 63.1842Z" fill="white"/>
<path d="M94.4141 80.187L94.4545 80.2158V80.1581L94.4141 80.187Z" fill="#231F20"/>
<path d="M93.2976 45.9448V60.7115L52.2519 30.3529L62.2407 22.9695L72.3189 30.425L73.7471 31.4839L93.2976 45.9448Z" fill="white"/>
<path d="M5.17324 95.5942L1.97639 91.2231V98.768H0V87.98H1.73115L5.45314 92.9686L9.18953 87.98H10.9207V98.768H8.94429V91.2231L5.71567 95.5798L5.17324 95.5942Z" fill="white"/>
<path d="M21.3913 96.7224H16.4171L15.5688 98.7767H13.4828L17.9723 87.98H19.8448L24.3342 98.7767H22.2424L21.3913 96.7224ZM17.1153 95.0229H20.6873L18.9734 90.8595L18.91 90.571L18.8465 90.8595L17.1153 95.0229Z" fill="white"/>
<path d="M25.8548 93.3668C25.8523 92.8563 25.9232 92.3481 26.0654 91.8578C26.1986 91.3856 26.3926 90.9327 26.6424 90.5104C26.895 90.0922 27.2016 89.709 27.5542 89.3707C27.9113 89.0345 28.3086 88.7438 28.7371 88.5051C29.1746 88.2531 29.6431 88.0591 30.1307 87.9281C30.6373 87.7949 31.1592 87.729 31.683 87.7319C32.2067 87.7294 32.7286 87.7953 33.2352 87.9281C33.7236 88.0596 34.193 88.2535 34.6317 88.5051C35.0602 88.7438 35.4575 89.0345 35.8147 89.3707C36.1673 89.7097 36.4747 90.0928 36.7293 90.5104C36.9839 90.932 37.1827 91.385 37.3208 91.8578C37.4629 92.3481 37.5338 92.8563 37.5314 93.3668C37.535 94.0367 37.4127 94.7012 37.1707 95.3259C36.9338 95.9305 36.5973 96.4913 36.1753 96.9849L37.8487 98.6584L36.5244 99.9971L34.7298 98.1909C34.2772 98.4546 33.7923 98.6583 33.2872 98.7969C32.7632 98.9382 32.2228 99.009 31.6801 99.0075C31.1562 99.0094 30.6343 98.9425 30.1278 98.8084C29.6398 98.6786 29.1712 98.4846 28.7342 98.2313C28.3065 97.9915 27.9093 97.7009 27.5513 97.3658C27.1988 97.0285 26.8922 96.6463 26.6395 96.229C26.3892 95.8059 26.1952 95.352 26.0625 94.8787C25.9209 94.3873 25.851 93.8781 25.8548 93.3668ZM27.8283 93.3668C27.8248 93.8986 27.9288 94.4256 28.1341 94.9162C28.3293 95.3807 28.6113 95.8038 28.9651 96.1626C29.3156 96.515 29.731 96.7962 30.1884 96.9907C30.6643 97.1892 31.176 97.2874 31.6916 97.2792C32.2119 97.2873 32.7283 97.1891 33.2093 96.9907C33.6688 96.797 34.0862 96.5157 34.4384 96.1626C34.7913 95.8043 35.0715 95.381 35.2636 94.9162C35.4616 94.424 35.5597 93.8973 35.5521 93.3668C35.5599 92.8344 35.4619 92.3058 35.2636 91.8117C35.0722 91.3447 34.792 90.9195 34.4384 90.5594C34.0855 90.2073 33.6682 89.9262 33.2093 89.7314C32.7279 89.5342 32.2117 89.4361 31.6916 89.4429C31.1762 89.4364 30.6648 89.5345 30.1884 89.7314C29.7316 89.927 29.3164 90.208 28.9651 90.5594C28.6106 90.9199 28.3285 91.345 28.1341 91.8117C27.9314 92.3077 27.8313 92.8397 27.8398 93.3755L27.8283 93.3668Z" fill="white"/>
<path d="M47.7856 87.9887H49.7591V94.6046C49.7667 95.2131 49.6539 95.8171 49.4273 96.3819C49.2137 96.9074 48.8935 97.383 48.4867 97.7784C48.0722 98.1764 47.5815 98.4865 47.0441 98.6901C46.4421 98.912 45.8044 99.0215 45.1629 99.0133C44.5434 99.0196 43.9278 98.915 43.3452 98.7045C42.8043 98.5105 42.3072 98.2115 41.8824 97.8245C41.4615 97.4372 41.1289 96.9639 40.9071 96.4367C40.6638 95.857 40.543 95.2332 40.5523 94.6046V87.9887H42.52V94.6046C42.5161 94.9661 42.5757 95.3254 42.696 95.6664C42.8059 95.9858 42.9786 96.2801 43.2038 96.5319C43.433 96.7827 43.7148 96.9797 44.029 97.109C44.3885 97.2563 44.7745 97.328 45.1629 97.3196C45.5437 97.3261 45.9217 97.2544 46.2737 97.109C46.5877 96.9778 46.87 96.7811 47.1018 96.5319C47.3303 96.2865 47.5061 95.9968 47.6182 95.6808C47.7392 95.339 47.7997 94.9787 47.7971 94.6161L47.7856 87.9887Z" fill="white"/>
<path d="M53.2474 87.9887H55.2209V98.768H53.2474V87.9887Z" fill="white"/>
<path d="M60.2239 95.5307C60.2217 95.7744 60.2813 96.0146 60.397 96.229C60.5161 96.4559 60.6847 96.6531 60.8904 96.806C61.1191 96.9765 61.3759 97.1054 61.6492 97.1869C61.9683 97.2823 62.3 97.329 62.6331 97.3254C63.4986 97.3254 64.1219 97.1898 64.5229 96.9185C64.7141 96.7942 64.8701 96.6227 64.9757 96.4205C65.0813 96.2184 65.1331 95.9924 65.1259 95.7645C65.1379 95.4987 65.0652 95.236 64.9182 95.0143C64.7671 94.8084 64.5693 94.6413 64.3412 94.5267C64.0552 94.3803 63.7531 94.268 63.441 94.192C63.0928 94.1016 62.7081 94.0054 62.2869 93.9035L61.5453 93.7477C61.2721 93.691 61.0024 93.6188 60.7375 93.5313C60.4657 93.4426 60.2014 93.3326 59.9469 93.2023C59.7032 93.0733 59.4812 92.9069 59.2891 92.709C59.0929 92.5115 58.9345 92.2797 58.8217 92.0252C58.6947 91.7313 58.6337 91.4132 58.6428 91.0932C58.6373 90.6305 58.7175 90.1707 58.8794 89.7372C59.037 89.3247 59.2971 88.9593 59.6353 88.6754C60.0239 88.3545 60.4749 88.1177 60.9596 87.98C61.5939 87.8009 62.2512 87.7173 62.9101 87.7319C63.4605 87.7232 64.0088 87.8021 64.5345 87.9656C64.9746 88.1037 65.3826 88.3283 65.7347 88.6263C66.0592 88.9076 66.3156 89.2588 66.4849 89.6535C66.6598 90.0749 66.7471 90.5274 66.7417 90.9836H64.7595C64.7611 90.7758 64.7178 90.5701 64.6326 90.3806C64.5454 90.1921 64.4161 90.0263 64.2546 89.8958C64.0676 89.7481 63.8541 89.6375 63.6256 89.5698C63.3369 89.4867 63.0374 89.4468 62.7369 89.4515C62.3873 89.443 62.0384 89.4858 61.7011 89.5785C61.4649 89.6458 61.2436 89.7574 61.0491 89.9074C60.8982 90.0298 60.7827 90.1901 60.7144 90.3719C60.6519 90.542 60.6197 90.7216 60.6192 90.9028C60.6119 91.1223 60.6813 91.3376 60.8154 91.5116C60.9646 91.6902 61.1519 91.8331 61.3636 91.9299C61.6277 92.0573 61.9056 92.1541 62.1917 92.2185C62.5119 92.2935 62.8639 92.357 63.2447 92.4089C63.7554 92.5214 64.2488 92.6484 64.7191 92.7926C65.1593 92.9217 65.5775 93.1162 65.9598 93.3697C66.317 93.6099 66.6133 93.9299 66.8254 94.3045C67.0577 94.7487 67.1691 95.2462 67.1485 95.7471C67.1571 96.2328 67.044 96.7128 66.8196 97.1436C66.5952 97.5536 66.2781 97.9053 65.8934 98.1708C65.4542 98.4666 64.9657 98.6816 64.4508 98.8055C63.8469 98.9557 63.2264 99.0284 62.6042 99.0219C61.9437 99.0356 61.2861 98.931 60.6625 98.7132C60.1558 98.536 59.689 98.2605 59.2891 97.9024C58.9465 97.5913 58.6757 97.2093 58.4956 96.7829C58.3283 96.3845 58.241 95.9571 58.2388 95.525L60.2239 95.5307Z" fill="white"/>
<path d="M70.253 87.9887H77.6479V89.6997H72.2294V92.5849H76.9093V94.2843H72.2294V97.0686H77.7114V98.768H70.253V87.9887Z" fill="white"/>
<path d="M85.0198 95.0172H82.7346V98.768H80.7611V87.98H85.4179C85.9301 87.9741 86.4393 88.0601 86.9212 88.2339C87.36 88.3914 87.7631 88.6347 88.107 88.9495C88.4415 89.2628 88.706 89.6433 88.8831 90.0661C89.077 90.5221 89.1752 91.0132 89.1716 91.5087C89.174 91.8806 89.1225 92.2509 89.0187 92.608C88.923 92.9372 88.777 93.2496 88.5859 93.5341C88.3975 93.8082 88.1678 94.0515 87.905 94.2555C87.6328 94.463 87.3327 94.631 87.0135 94.7546L89.4169 98.7767H87.1462L85.0198 95.0172ZM85.3545 93.312C85.6009 93.3143 85.8456 93.2703 86.0758 93.1822C86.2906 93.0996 86.4867 92.975 86.6528 92.8157C86.8197 92.6518 86.9513 92.4554 87.0394 92.2387C87.1376 92.0049 87.1867 91.7535 87.1837 91.5C87.1863 91.2466 87.1372 90.9953 87.0394 90.7614C86.949 90.5459 86.8177 90.35 86.6528 90.1844C86.487 90.022 86.2909 89.8936 86.0758 89.8064C85.843 89.7165 85.5953 89.6714 85.3458 89.6737H82.7491V93.2976L85.3545 93.312Z" fill="white"/>
<path d="M99.9307 87.98H102.017L97.4869 98.768H95.6952L91.1653 87.9714H93.2514L96.5839 96.1251L99.9307 87.98Z" fill="white"/>
<path d="M104.668 87.9887H106.645V98.768H104.668V87.9887Z" fill="white"/>
<path d="M119.135 91.6847C118.997 91.3381 118.802 91.0172 118.558 90.7355C118.324 90.4611 118.049 90.2237 117.744 90.0314C117.439 89.837 117.106 89.6882 116.758 89.59C116.404 89.4895 116.038 89.439 115.67 89.44C115.154 89.4332 114.643 89.5314 114.167 89.7285C113.709 89.924 113.293 90.2051 112.94 90.5566C112.587 90.9172 112.306 91.3423 112.112 91.8088C111.905 92.3009 111.801 92.8301 111.806 93.3639C111.802 93.8958 111.906 94.4231 112.112 94.9133C112.31 95.383 112.596 95.8101 112.955 96.1713C113.306 96.5237 113.723 96.8048 114.181 96.9993C114.657 97.1978 115.169 97.296 115.684 97.2879C116.051 97.2886 116.416 97.2391 116.769 97.1407C117.115 97.0442 117.446 96.8984 117.75 96.7079C118.056 96.5176 118.33 96.2811 118.564 96.0068C118.807 95.7246 119.003 95.4038 119.141 95.0576H121.16C120.999 95.6685 120.717 96.2413 120.332 96.7425C119.964 97.2238 119.518 97.6411 119.014 97.9774C118.517 98.3092 117.974 98.564 117.401 98.7334C116.84 98.9045 116.256 98.992 115.67 98.993C115.145 98.9948 114.622 98.9279 114.115 98.794C113.628 98.6636 113.16 98.4696 112.724 98.2169C112.296 97.9778 111.898 97.6871 111.541 97.3513C111.188 97.0148 110.881 96.6325 110.629 96.2145C110.38 95.7909 110.186 95.3371 110.052 94.8643C109.913 94.3745 109.843 93.8674 109.844 93.3581C109.842 92.8479 109.912 92.3399 110.052 91.8492C110.187 91.3774 110.381 90.9247 110.629 90.5017C110.881 90.0829 111.188 89.6996 111.541 89.3621C111.898 89.0252 112.295 88.7344 112.724 88.4965C113.161 88.2449 113.628 88.0509 114.115 87.9194C114.622 87.7865 115.145 87.7205 115.67 87.7232C116.256 87.7231 116.839 87.8067 117.401 87.9714C117.974 88.1364 118.518 88.3885 119.014 88.7187C119.521 89.0528 119.967 89.4714 120.332 89.9564C120.722 90.4721 121.003 91.0608 121.16 91.6876L119.135 91.6847Z" fill="white"/>
<path d="M124.461 87.9887H126.438V98.768H124.461V87.9887Z" fill="white"/>
<path d="M129.629 93.3668C129.626 92.8563 129.697 92.3481 129.839 91.8578C129.973 91.3856 130.167 90.9327 130.416 90.5104C130.668 90.0916 130.975 89.7083 131.328 89.3707C131.684 89.0339 132.08 88.7431 132.508 88.5052C132.946 88.2541 133.414 88.0601 133.902 87.9281C134.409 87.795 134.932 87.729 135.457 87.7319C135.981 87.7298 136.502 87.7957 137.009 87.9281C137.497 88.0591 137.965 88.2531 138.403 88.5052C138.832 88.7431 139.229 89.0339 139.586 89.3707C139.94 89.7089 140.248 90.092 140.503 90.5104C140.754 90.9322 140.948 91.3852 141.08 91.8578C141.222 92.3481 141.293 92.8563 141.291 93.3668C141.293 93.8763 141.222 94.3836 141.08 94.8729C140.949 95.3466 140.755 95.8007 140.503 96.2232C140.248 96.6407 139.94 97.0229 139.586 97.36C139.228 97.6958 138.831 97.9865 138.403 98.2256C137.966 98.4788 137.497 98.6728 137.009 98.8026C136.503 98.936 135.981 99.0029 135.457 99.0017C134.932 99.0037 134.409 98.9367 133.902 98.8026C133.414 98.6718 132.946 98.4778 132.508 98.2256C132.081 97.9864 131.685 97.6957 131.328 97.36C130.975 97.0235 130.668 96.6412 130.416 96.2232C130.166 95.8001 129.972 95.3462 129.839 94.8729C129.697 94.3836 129.626 93.8763 129.629 93.3668ZM131.605 93.3668C131.6 93.8987 131.704 94.426 131.911 94.9162C132.104 95.3811 132.385 95.8044 132.739 96.1626C133.091 96.515 133.507 96.7962 133.965 96.9907C134.441 97.1892 134.953 97.2874 135.468 97.2792C135.988 97.2877 136.503 97.1895 136.983 96.9907C137.443 96.797 137.86 96.5157 138.212 96.1626C138.566 95.805 138.846 95.3816 139.037 94.9162C139.242 94.4254 139.345 93.8984 139.34 93.3668C139.345 92.8333 139.242 92.3044 139.037 91.8117C138.847 91.3442 138.567 90.9187 138.212 90.5595C137.859 90.2073 137.442 89.9262 136.983 89.7314C136.503 89.5339 135.988 89.4358 135.468 89.4429C134.953 89.4361 134.442 89.5342 133.965 89.7314C133.508 89.9269 133.091 90.208 132.739 90.5595C132.384 90.9193 132.103 91.3446 131.911 91.8117C131.703 92.3065 131.599 92.8387 131.605 93.3755V93.3668Z" fill="white"/>
<path d="M145.65 95.5307C145.648 95.7744 145.708 96.0146 145.824 96.229C145.943 96.4555 146.112 96.6526 146.317 96.806C146.546 96.977 146.804 97.106 147.079 97.1869C147.398 97.2827 147.729 97.3294 148.063 97.3254C148.92 97.3254 149.549 97.1898 149.949 96.9185C150.141 96.7942 150.297 96.6227 150.402 96.4205C150.508 96.2184 150.56 95.9924 150.553 95.7645C150.564 95.4992 150.492 95.2369 150.348 95.0143C150.196 94.8093 149.998 94.6424 149.771 94.5267C149.485 94.3803 149.183 94.268 148.87 94.192C148.521 94.1025 148.138 94.0102 147.716 93.9035L146.975 93.7477C146.701 93.6914 146.43 93.6191 146.164 93.5313C145.893 93.4421 145.63 93.3321 145.376 93.2023C145.124 93.0755 144.893 92.9089 144.693 92.709C144.496 92.5115 144.338 92.2797 144.225 92.0252C144.1 91.7309 144.039 91.4131 144.046 91.0932C144.042 90.6303 144.123 90.1705 144.286 89.7372C144.443 89.3255 144.702 88.9603 145.039 88.6754C145.427 88.3545 145.878 88.1177 146.363 87.98C146.997 87.8009 147.655 87.7173 148.314 87.7319C148.864 87.7232 149.412 87.8021 149.938 87.9656C150.379 88.1026 150.787 88.3274 151.138 88.6263C151.463 88.9076 151.719 89.2588 151.888 89.6535C152.065 90.0745 152.152 90.5273 152.145 90.9836H150.175C150.176 90.7758 150.133 90.5701 150.048 90.3806C149.96 90.1921 149.831 90.0263 149.67 89.8958C149.483 89.7481 149.269 89.6375 149.041 89.5698C148.752 89.4867 148.452 89.4468 148.152 89.4515C147.802 89.443 147.453 89.4858 147.116 89.5785C146.881 89.6458 146.66 89.7574 146.467 89.9074C146.315 90.0297 146.199 90.19 146.129 90.3719C146.067 90.542 146.035 90.7216 146.034 90.9028C146.028 91.1221 146.098 91.3369 146.23 91.5116C146.38 91.6895 146.567 91.8324 146.779 91.9299C147.044 92.0573 147.323 92.1541 147.61 92.2185C147.927 92.2935 148.279 92.357 148.66 92.4089C149.173 92.5224 149.665 92.6503 150.134 92.7926C150.575 92.9223 150.994 93.1167 151.378 93.3697C151.734 93.6115 152.03 93.9312 152.243 94.3045C152.473 94.7494 152.584 95.2466 152.564 95.7471C152.572 96.2328 152.459 96.7128 152.235 97.1436C152.011 97.5542 151.694 97.9061 151.308 98.1708C150.874 98.4645 150.392 98.6794 149.883 98.8055C149.278 98.9556 148.657 99.0284 148.034 99.0219C147.374 99.0359 146.717 98.9313 146.095 98.7132C145.594 98.537 145.133 98.2634 144.739 97.9082C144.395 97.5978 144.124 97.2156 143.945 96.7887C143.776 96.3909 143.687 95.9632 143.686 95.5307H145.65Z" fill="white"/>
<path d="M166.009 91.7309C165.87 91.3823 165.675 91.0587 165.432 90.773C165.194 90.4963 164.917 90.2562 164.609 90.0603C164.3 89.8643 163.964 89.7146 163.611 89.616C163.254 89.5131 162.884 89.4617 162.512 89.4631C161.99 89.4595 161.472 89.5625 160.991 89.766C160.529 89.9644 160.109 90.2494 159.754 90.6056C159.396 90.9688 159.111 91.398 158.917 91.8694C158.708 92.366 158.603 92.9002 158.608 93.4389C158.601 93.9807 158.707 94.5179 158.917 95.0172C159.113 95.4861 159.397 95.9131 159.754 96.2751C160.108 96.6314 160.529 96.9155 160.991 97.1119C161.472 97.3176 161.989 97.4217 162.512 97.4177C162.882 97.4189 163.25 97.3684 163.605 97.2677C163.957 97.1722 164.292 97.0254 164.601 96.832C164.909 96.6387 165.187 96.3994 165.423 96.1222C165.666 95.8365 165.861 95.5129 166 95.1643H168.063C167.899 95.7823 167.615 96.3617 167.226 96.8695C166.854 97.3546 166.405 97.7756 165.896 98.1159C165.393 98.4506 164.843 98.7083 164.263 98.8805C163.702 99.0501 163.119 99.1375 162.532 99.1402C162.002 99.142 161.473 99.075 160.96 98.9411C160.467 98.8102 159.994 98.6162 159.552 98.3641C159.12 98.1175 158.72 97.8191 158.36 97.4754C158.003 97.1332 157.692 96.7451 157.437 96.3213C157.18 95.8942 156.98 95.4354 156.842 94.9566C156.7 94.4614 156.629 93.9484 156.632 93.4332C156.629 92.918 156.7 92.405 156.842 91.9098C156.981 91.432 157.181 90.9743 157.437 90.5479C157.692 90.1241 158.003 89.736 158.36 89.3938C158.719 89.0502 159.119 88.7526 159.552 88.508C159.995 88.2569 160.468 88.063 160.96 87.931C161.473 87.7947 162.001 87.7268 162.532 87.729C163.118 87.7311 163.701 87.8166 164.263 87.9829C164.843 88.1486 165.394 88.4026 165.896 88.736C166.407 89.075 166.857 89.4985 167.226 89.9882C167.618 90.5038 167.902 91.0924 168.063 91.7193L166.009 91.7309Z" fill="white"/>
<path d="M169.099 98.0178C169.099 97.8736 169.127 97.7307 169.18 97.5966C169.234 97.466 169.313 97.3474 169.413 97.2475C169.517 97.1448 169.639 97.0634 169.774 97.008C169.921 96.9477 170.079 96.9173 170.239 96.9185C170.398 96.9173 170.556 96.9477 170.703 97.008C170.838 97.0634 170.96 97.1448 171.064 97.2475C171.164 97.3474 171.243 97.466 171.298 97.5966C171.351 97.7307 171.378 97.8736 171.378 98.0178C171.379 98.1621 171.351 98.3051 171.298 98.4391C171.244 98.5692 171.164 98.687 171.064 98.7853C170.96 98.8854 170.837 98.9638 170.703 99.0161C170.555 99.0745 170.397 99.1029 170.239 99.0998C170.08 99.102 169.922 99.0726 169.774 99.0132C169.641 98.9568 169.518 98.8766 169.413 98.7767C169.312 98.6794 169.232 98.5613 169.18 98.4304C169.127 98.2993 169.099 98.1593 169.099 98.0178Z" fill="white"/>
<path d="M182.87 91.7309C182.732 91.3817 182.537 91.058 182.293 90.773C182.057 90.4949 181.78 90.2546 181.471 90.0603C181.163 89.8637 180.827 89.7139 180.475 89.616C180.118 89.5135 179.748 89.462 179.376 89.4631C178.854 89.4595 178.337 89.5625 177.856 89.766C177.393 89.9637 176.973 90.2488 176.618 90.6056C176.259 90.9686 175.974 91.3978 175.778 91.8694C175.571 92.3664 175.466 92.9003 175.47 93.4389C175.465 93.9776 175.57 94.5115 175.778 95.0085C175.975 95.4775 176.26 95.9045 176.618 96.2665C176.972 96.6233 177.393 96.9076 177.856 97.1032C178.336 97.3089 178.854 97.4131 179.376 97.409C179.746 97.41 180.114 97.3595 180.47 97.259C180.821 97.1629 181.156 97.0161 181.465 96.8233C181.772 96.6292 182.049 96.39 182.285 96.1136C182.529 95.8284 182.724 95.5047 182.862 95.1557H184.913C184.748 95.7731 184.464 96.3524 184.076 96.8608C183.703 97.3461 183.252 97.7671 182.743 98.1073C182.241 98.4419 181.692 98.6996 181.113 98.8719C180.552 99.0414 179.969 99.1289 179.382 99.1315C178.851 99.1335 178.323 99.0665 177.81 98.9325C177.317 98.8021 176.844 98.6081 176.402 98.3554C175.969 98.1089 175.568 97.8105 175.207 97.4668C174.85 97.1238 174.54 96.7358 174.284 96.3127C174.033 95.8847 173.839 95.426 173.707 94.9479C173.563 94.4529 173.491 93.9399 173.493 93.4245C173.492 92.9092 173.564 92.3962 173.707 91.9011C173.84 91.4242 174.033 90.9664 174.284 90.5393C174.54 90.1161 174.85 89.7281 175.207 89.3852C175.567 89.0414 175.968 88.7439 176.402 88.4994C176.844 88.2478 177.318 88.0539 177.81 87.9223C178.322 87.7859 178.851 87.718 179.382 87.7204C179.968 87.7224 180.551 87.8079 181.113 87.9743C181.692 88.14 182.242 88.394 182.743 88.7273C183.255 89.0663 183.706 89.4897 184.076 89.9795C184.467 90.4957 184.751 91.0841 184.913 91.7107L182.87 91.7309Z" fill="white"/>
<path d="M186.529 98.0178C186.527 97.8734 186.555 97.7302 186.61 97.5966C186.663 97.4661 186.741 97.3475 186.84 97.2475C186.944 97.1448 187.066 97.0634 187.201 97.008C187.349 96.9477 187.508 96.9173 187.668 96.9185C187.828 96.9173 187.986 96.9477 188.133 97.008C188.268 97.0634 188.39 97.1448 188.494 97.2475C188.593 97.3475 188.671 97.4661 188.724 97.5966C188.779 97.7302 188.807 97.8734 188.805 98.0178C188.807 98.1623 188.779 98.3055 188.724 98.4391C188.672 98.569 188.593 98.6869 188.494 98.7853C188.39 98.8854 188.267 98.9638 188.133 99.0161C187.985 99.0745 187.827 99.1029 187.668 99.0998C187.508 99.102 187.35 99.0726 187.201 99.0132C187.068 98.9568 186.945 98.8766 186.84 98.7767C186.739 98.6793 186.661 98.5611 186.61 98.4304C186.555 98.2997 186.528 98.1594 186.529 98.0178Z" fill="white"/>
</svg>
