<svg width="32" height="30" viewBox="0 0 32 30" fill="none" xmlns="http://www.w3.org/2000/svg">
<path d="M15.5803 0V5.60676L15.4591 5.69464L7.64275 11.4403L3.82956 8.63689L15.5803 0Z" fill="#63A3D6"/>
<path d="M15.5803 6.40308V11.9133L11.933 14.5941L8.18313 11.8384L15.5803 6.40308Z" fill="#AAE0F8"/>
<path d="M32 17.852L28.2523 20.6066L24.4806 17.8347L23.8474 17.3703L27.5951 14.6147L32 17.852Z" fill="#2276BD"/>
<path d="M28.2523 20.6066L20.4043 26.3761L19.7712 26.8404L16.4274 29.2988V23.7539L16.6315 23.602L24.4806 17.8347L28.2523 20.6066Z" fill="#63A3D6"/>
<path d="M28.1726 8.63689L24.3594 11.4403L16.5431 5.69464L16.4274 5.60893V0.0021698L28.1726 8.63689Z" fill="#C8EAFB"/>
<path d="M31.9498 11.4131L27.5951 14.6147L23.8474 17.3703L16.4274 22.8263V17.2705L20.0703 14.5919L23.818 11.8384L24.3594 11.4403L28.1726 8.63689L31.9498 11.4131Z" fill="#AAE0F8"/>
<path d="M23.818 11.8384L20.0703 14.5919L16.4274 11.9155V6.40525L23.818 11.8384Z" fill="#2276BD"/>
<path d="M8.15365 17.3703L7.52267 17.8347L3.74987 20.6088L0 17.852L3.7728 15.0812L4.40596 14.6147L8.15365 17.3703Z" fill="#AAE0F8"/>
<path d="M15.5803 23.7582V29.3021L3.74987 20.6088L7.52267 17.8347L15.3685 23.602L15.5803 23.7582Z" fill="#63A3D6"/>
<path d="M15.5803 17.2759V22.8285L8.15365 17.3703L4.40596 14.6147L0.0502166 11.4131L3.82956 8.63689L7.64275 11.4403L8.18313 11.8384L11.933 14.5941L15.5803 17.2759Z" fill="#2276BD"/>
</svg>
